<svg width="22" height="10" viewBox="0 0 22 10" fill="none" xmlns="http://www.w3.org/2000/svg">
<path d="M19.8391 0.240092C20.2375 -0.366613 21.0821 0.299079 20.6836 0.90649C20.4699 1.23179 20.2369 1.55277 19.9868 1.8654L21.8366 3.83751C22.3277 4.36129 21.6016 5.17914 21.1105 4.65536L19.2676 2.69072C18.7848 3.20029 18.2535 3.68014 17.6813 4.1151L19.1605 6.54609C19.5392 7.17065 18.6722 7.80343 18.2915 7.17589L16.802 4.72771C16.142 5.14635 15.4439 5.50221 14.7166 5.78203L15.538 8.57651C15.7478 9.29061 14.7562 9.64055 14.5464 8.92489L13.7188 6.11113C13.0105 6.30805 12.2757 6.43279 11.5216 6.47304V9.43528C11.5216 10.1882 10.4776 10.1882 10.4776 9.43528V6.47304C9.72365 6.43279 8.98952 6.30822 8.28118 6.11113L7.45362 8.92418C7.2438 9.63984 6.25297 9.28974 6.46199 8.5758L7.28339 5.78132C6.55608 5.50147 5.85788 5.14565 5.19802 4.727L3.70854 7.17518C3.32785 7.80272 2.46086 7.16998 2.83946 6.54538L4.31865 4.11439C3.74652 3.67943 3.21603 3.20024 2.7324 2.69001L0.889448 4.65465C0.398397 5.17843 -0.327658 4.36057 0.163392 3.8368L2.01315 1.86469C1.76247 1.55205 1.53033 1.23196 1.31576 0.905779C0.917334 0.299074 1.76185 -0.367146 2.16027 0.239381C4.15175 3.27033 7.54143 5.34174 10.999 5.34174C14.4575 5.34174 17.8465 3.27037 19.8373 0.239381L19.8391 0.240092Z" fill="black"/>
</svg>
