<svg width="471" height="295" viewBox="0 0 471 295" fill="none" xmlns="http://www.w3.org/2000/svg">
<path d="M-138.186 158.373C-137.266 155.386 -130.954 153.856 -125.102 153.899C-117.666 153.954 -111.003 156.494 -105.525 158.743C-95.7361 162.761 -82.057 161.207 -71.7544 165.921C-56.5464 172.879 -50.1091 165.493 -47.7689 156.227C-46.043 149.393 -40.1636 143.116 -36.9579 136.549C-33.8708 130.226 -27.8191 124.104 -15.0521 121.304C-9.69247 120.128 -3.42355 119.754 2.23909 120.951C8.2871 122.229 12.4946 124.92 18.1945 126.494C28.8016 129.422 41.5339 128.282 51.3319 125.543C62.7286 122.358 69.7358 116.94 75.3411 111.323C81.153 105.5 85.7111 99.2444 94.2586 94.2119C101.552 89.9176 111.833 86.3229 124.036 86.6277C135.994 86.9264 146.102 90.8206 155.214 94.3141C164.591 97.9097 174.239 101.752 185.975 103.216C211.124 106.354 234.566 98.028 249.227 89.3187C265.96 79.3779 278.324 66.4902 303.56 60.8557C314.407 58.4339 327.442 57.3109 339.176 59.525C351.035 61.7629 358.372 66.9507 364.932 71.9579C371.652 77.0868 378.336 82.1463 388.682 85.7731C398.835 89.3324 410.847 91.5189 423.172 92.0069C429.125 92.2426 434.974 92.0552 440.771 91.4975C443.419 91.2427 441.943 89.2948 439.313 89.5479C426.599 90.771 413.01 89.7995 401.113 87.0317C389.159 84.2508 380.449 79.8526 373.262 74.5332C366.681 69.663 360.794 64.2851 351.184 60.5962C341.464 56.8647 329.172 55.6563 317.34 56.622C305.343 57.6012 294.228 60.3835 285.17 64.1762C274.649 68.582 266.649 74.1962 258.672 79.6673C244.254 89.5559 226.185 101.125 198.502 101.787C172.291 102.414 157.762 89.8565 135.067 85.744C123.91 83.7222 112.345 84.5022 102.754 87.5945C92.8249 90.7961 85.9518 95.6806 80.7072 100.792C74.2812 107.054 69.5863 113.99 60.0808 119.347C52.5669 123.583 40.3177 126.962 28.1747 126.047C21.2187 125.523 16.5173 123.449 11.184 121.362C6.37585 119.481 1.09263 118.221 -5.07861 118.16C-16.6371 118.047 -27.0851 121.888 -33.1557 126.279C-48.1295 137.111 -35.6792 158.014 -60.0804 166.07C-64.5403 167.543 -73.5814 164.371 -79.1385 164.09C-86.5833 163.713 -92.8008 161.369 -98.3716 159.069C-107.994 155.095 -120.102 149.86 -133.305 152.615C-137.99 153.593 -141.584 155.429 -142.357 157.94C-142.756 159.235 -138.587 159.674 -138.186 158.373Z" fill="#19E1E1"/>
<path d="M-131.981 170.38C-131.007 167.483 -124.677 166.066 -118.835 166.175C-111.411 166.314 -104.806 168.864 -99.3781 171.116C-89.6785 175.14 -75.9923 173.785 -65.7929 178.493C-50.7371 185.441 -44.1738 178.326 -41.6665 169.332C-39.8174 162.698 -33.8315 156.656 -30.5098 150.3C-27.311 144.179 -21.156 138.29 -8.35756 135.71C-2.9847 134.627 3.28122 134.335 8.91287 135.566C14.9278 136.879 19.079 139.548 24.741 141.145C35.2773 144.118 48.0105 143.155 57.8436 140.601C69.2811 137.631 76.3771 132.438 82.077 127.035C87.9872 121.433 92.6533 115.395 101.28 110.594C108.641 106.497 118.972 103.116 131.151 103.553C143.084 103.982 153.105 107.889 162.137 111.395C171.434 115.004 180.995 118.855 192.686 120.416C217.737 123.76 241.296 115.924 256.094 107.614C272.985 98.1296 285.566 85.7254 310.867 80.5308C321.741 78.298 334.776 77.3547 346.451 79.6453C358.25 81.9605 365.479 87.0954 371.937 92.0455C378.552 97.116 385.132 102.118 395.395 105.768C405.466 109.35 417.419 111.617 429.715 112.234C435.654 112.532 441.498 112.417 447.296 111.941C449.945 111.723 448.507 109.81 445.876 110.026C433.16 111.07 419.61 109.968 407.783 107.137C395.899 104.292 387.284 99.9099 380.206 94.6486C373.726 89.8316 367.947 84.5282 358.42 80.8263C348.784 77.0817 336.533 75.7638 324.702 76.5677C312.706 77.3829 301.557 79.9636 292.444 83.5515C281.858 87.7196 273.768 93.0931 265.702 98.3275C251.125 107.788 232.871 118.843 205.22 119.169C179.038 119.477 164.764 107.085 142.181 102.82C131.078 100.723 119.517 101.35 109.884 104.25C99.9117 107.252 92.9594 111.928 87.6289 116.844C81.0975 122.866 76.2822 129.564 66.6929 134.67C59.1128 138.707 46.8206 141.856 34.7136 140.825C27.7783 140.235 23.1225 138.162 17.8361 136.069C13.0702 134.182 7.81855 132.895 1.65816 132.765C-9.87999 132.521 -20.3823 136.14 -26.5243 140.345C-41.6742 150.718 -29.6288 171.21 -54.14 178.773C-58.62 180.155 -67.5884 176.963 -73.1315 176.625C-80.5577 176.172 -86.7221 173.82 -92.2418 171.516C-101.776 167.536 -113.768 162.301 -127.001 164.831C-131.697 165.729 -135.319 167.475 -136.137 169.91C-136.559 171.167 -132.405 171.642 -131.981 170.38Z" fill="#E11961"/>
<path d="M-118.268 197.114C-117.956 194.093 -112.028 192.584 -106.24 192.667C-98.8865 192.773 -91.8007 195.393 -85.9429 197.709C-75.4751 201.848 -62.2771 200.365 -51.1635 205.213C-34.7584 212.368 -29.8746 204.925 -29.4117 195.548C-29.0703 188.633 -24.5164 182.31 -22.6603 175.676C-20.873 169.287 -16.1179 163.123 -4.06936 160.37C0.988684 159.215 7.10453 158.878 12.9349 160.129C19.162 161.465 23.8535 164.222 29.7959 165.855C40.8541 168.895 53.1995 167.825 62.3286 165.115C72.9473 161.963 78.7862 156.519 83.2012 150.864C87.7791 145 91.0325 138.69 98.4692 133.647C104.815 129.343 114.25 125.769 126.361 126.16C138.229 126.543 148.987 130.559 158.681 134.161C168.659 137.869 178.951 141.829 190.832 143.392C216.292 146.742 237.78 138.461 250.521 129.732C265.062 119.769 274.701 106.789 298.497 101.248C308.725 98.8661 321.373 97.8157 333.401 100.139C345.558 102.488 353.837 107.796 361.314 112.915C368.973 118.159 376.583 123.333 387.522 127.079C398.257 130.755 410.555 133.052 422.823 133.63C428.748 133.909 434.487 133.759 440.1 133.232C442.664 132.992 440.818 131.008 438.271 131.246C425.961 132.401 412.348 131.324 400.048 128.438C387.689 125.539 378.211 121.022 370.053 115.582C362.584 110.601 355.698 105.11 345.473 101.306C335.13 97.458 322.751 96.1502 311.26 97.0493C299.608 97.9609 289.187 100.706 281 104.489C271.488 108.884 264.709 114.521 257.923 120.013C245.658 129.939 230.122 141.544 202.918 142.028C177.16 142.486 160.309 129.66 137.078 125.339C125.657 123.214 114.393 123.927 105.539 126.996C96.3724 130.175 90.5594 135.079 86.3999 140.225C81.3032 146.529 78.0503 153.527 69.7323 158.894C63.1571 163.136 51.7352 166.479 39.562 165.47C32.5887 164.892 27.5324 162.757 21.8498 160.607C16.7267 158.667 11.2584 157.354 5.15233 157.251C-6.28397 157.058 -15.8351 160.881 -20.9539 165.291C-33.58 176.17 -17.1171 197.441 -39.6059 205.443C-43.7162 206.906 -53.2767 203.629 -58.8203 203.307C-66.2471 202.874 -72.854 200.457 -78.8138 198.088C-89.1084 193.995 -102.108 188.607 -114.597 191.31C-119.028 192.27 -122.211 194.107 -122.473 196.647C-122.609 197.957 -118.404 198.43 -118.268 197.114Z" fill="#FBF090"/>
<path d="M-138.186 158.373C-137.266 155.386 -130.954 153.856 -125.102 153.899C-117.666 153.954 -111.003 156.494 -105.525 158.743C-95.7361 162.761 -82.057 161.207 -71.7544 165.921C-56.5464 172.879 -50.1091 165.493 -47.7689 156.227C-46.043 149.393 -40.1636 143.116 -36.9579 136.549C-33.8708 130.226 -27.8191 124.104 -15.0521 121.304C-9.69247 120.128 -3.42355 119.754 2.23909 120.951C8.2871 122.229 12.4946 124.92 18.1945 126.494C28.8016 129.422 41.5339 128.282 51.3319 125.543C62.7286 122.358 69.7358 116.94 75.3411 111.323C81.153 105.5 85.7111 99.2444 94.2586 94.2119C101.552 89.9176 111.833 86.3229 124.036 86.6277C135.994 86.9264 146.102 90.8206 155.214 94.3141C164.591 97.9097 174.239 101.752 185.975 103.216C211.124 106.354 234.566 98.028 249.227 89.3187C265.96 79.3779 278.324 66.4902 303.56 60.8557C314.407 58.4339 327.442 57.3109 339.176 59.525C351.035 61.7629 358.372 66.9507 364.932 71.9579C371.652 77.0868 378.336 82.1463 388.682 85.7731C398.835 89.3324 410.847 91.5189 423.172 92.0069C429.125 92.2426 434.974 92.0552 440.771 91.4975C443.419 91.2427 441.943 89.2948 439.313 89.5479C426.599 90.771 413.01 89.7995 401.113 87.0317C389.159 84.2508 380.449 79.8526 373.262 74.5332C366.681 69.663 360.794 64.2851 351.184 60.5962C341.464 56.8647 329.172 55.6563 317.34 56.622C305.343 57.6012 294.228 60.3835 285.17 64.1762C274.649 68.582 266.649 74.1962 258.672 79.6673C244.254 89.5559 226.185 101.125 198.502 101.787C172.291 102.414 157.762 89.8565 135.067 85.744C123.91 83.7222 112.345 84.5022 102.754 87.5945C92.8249 90.7961 85.9518 95.6806 80.7072 100.792C74.2812 107.054 69.5863 113.99 60.0808 119.347C52.5669 123.583 40.3177 126.962 28.1747 126.047C21.2187 125.523 16.5173 123.449 11.184 121.362C6.37585 119.481 1.09263 118.221 -5.07861 118.16C-16.6371 118.047 -27.0851 121.888 -33.1557 126.279C-48.1295 137.111 -35.6792 158.014 -60.0804 166.07C-64.5403 167.543 -73.5814 164.371 -79.1385 164.09C-86.5833 163.713 -92.8008 161.369 -98.3716 159.069C-107.994 155.095 -120.102 149.86 -133.305 152.615C-137.99 153.593 -141.584 155.429 -142.357 157.94C-142.756 159.235 -138.587 159.674 -138.186 158.373Z" fill="#E7E15B"/>
<path d="M-131.981 170.38C-131.007 167.483 -124.677 166.066 -118.835 166.175C-111.411 166.314 -104.806 168.864 -99.3781 171.116C-89.6785 175.14 -75.9923 173.785 -65.7929 178.493C-50.7371 185.441 -44.1738 178.326 -41.6665 169.332C-39.8174 162.698 -33.8315 156.656 -30.5098 150.3C-27.311 144.179 -21.156 138.29 -8.35756 135.71C-2.9847 134.627 3.28122 134.335 8.91287 135.566C14.9278 136.879 19.079 139.548 24.741 141.145C35.2773 144.118 48.0105 143.155 57.8436 140.601C69.2811 137.631 76.3771 132.438 82.077 127.035C87.9872 121.433 92.6533 115.395 101.28 110.594C108.641 106.497 118.972 103.116 131.151 103.553C143.084 103.982 153.105 107.889 162.137 111.395C171.434 115.004 180.995 118.855 192.686 120.416C217.737 123.76 241.296 115.924 256.094 107.614C272.985 98.1296 285.566 85.7254 310.867 80.5308C321.741 78.298 334.776 77.3547 346.451 79.6453C358.25 81.9605 365.479 87.0954 371.937 92.0455C378.552 97.116 385.132 102.118 395.395 105.768C405.466 109.35 417.419 111.617 429.715 112.234C435.654 112.532 441.498 112.417 447.296 111.941C449.945 111.723 448.507 109.81 445.876 110.026C433.16 111.07 419.61 109.968 407.783 107.137C395.899 104.292 387.284 99.9099 380.206 94.6486C373.726 89.8316 367.947 84.5282 358.42 80.8263C348.784 77.0817 336.533 75.7638 324.702 76.5677C312.706 77.3829 301.557 79.9636 292.444 83.5515C281.858 87.7196 273.768 93.0931 265.702 98.3275C251.125 107.788 232.871 118.843 205.22 119.169C179.038 119.477 164.764 107.085 142.181 102.82C131.078 100.723 119.517 101.35 109.884 104.25C99.9117 107.252 92.9594 111.928 87.6289 116.844C81.0975 122.866 76.2822 129.564 66.6929 134.67C59.1128 138.707 46.8206 141.856 34.7136 140.825C27.7783 140.235 23.1225 138.162 17.8361 136.069C13.0702 134.182 7.81855 132.895 1.65816 132.765C-9.87999 132.521 -20.3823 136.14 -26.5243 140.345C-41.6742 150.718 -29.6288 171.21 -54.14 178.773C-58.62 180.155 -67.5884 176.963 -73.1315 176.625C-80.5577 176.172 -86.7221 173.82 -92.2418 171.516C-101.776 167.536 -113.768 162.301 -127.001 164.831C-131.697 165.729 -135.319 167.475 -136.137 169.91C-136.559 171.167 -132.405 171.642 -131.981 170.38Z" fill="#E11961"/>
<path d="M-118.268 197.114C-117.956 194.093 -112.028 192.584 -106.24 192.667C-98.8865 192.773 -91.8007 195.393 -85.9429 197.709C-75.4751 201.848 -62.2771 200.365 -51.1635 205.213C-34.7584 212.368 -29.8746 204.925 -29.4117 195.548C-29.0703 188.633 -24.5164 182.31 -22.6603 175.676C-20.873 169.287 -16.1179 163.123 -4.06936 160.37C0.988684 159.215 7.10453 158.878 12.9349 160.129C19.162 161.465 23.8535 164.222 29.7959 165.855C40.8541 168.895 53.1995 167.825 62.3286 165.115C72.9473 161.963 78.7862 156.519 83.2012 150.864C87.7791 145 91.0325 138.69 98.4692 133.647C104.815 129.343 114.25 125.769 126.361 126.16C138.229 126.543 148.987 130.559 158.681 134.161C168.659 137.869 178.951 141.829 190.832 143.392C216.292 146.742 237.78 138.461 250.521 129.732C265.062 119.769 274.701 106.789 298.497 101.248C308.725 98.8661 321.373 97.8157 333.401 100.139C345.558 102.488 353.837 107.796 361.314 112.915C368.973 118.159 376.583 123.333 387.522 127.079C398.257 130.755 410.555 133.052 422.823 133.63C428.748 133.909 434.487 133.759 440.1 133.232C442.664 132.992 440.818 131.008 438.271 131.246C425.961 132.401 412.348 131.324 400.048 128.438C387.689 125.539 378.211 121.022 370.053 115.582C362.584 110.601 355.698 105.11 345.473 101.306C335.13 97.458 322.751 96.1502 311.26 97.0493C299.608 97.9609 289.187 100.706 281 104.489C271.488 108.884 264.709 114.521 257.923 120.013C245.658 129.939 230.122 141.544 202.918 142.028C177.16 142.486 160.309 129.66 137.078 125.339C125.657 123.214 114.393 123.927 105.539 126.996C96.3724 130.175 90.5594 135.079 86.3999 140.225C81.3032 146.529 78.0503 153.527 69.7323 158.894C63.1571 163.136 51.7352 166.479 39.562 165.47C32.5887 164.892 27.5324 162.757 21.8498 160.607C16.7267 158.667 11.2584 157.354 5.15233 157.251C-6.28397 157.058 -15.8351 160.881 -20.9539 165.291C-33.58 176.17 -17.1171 197.441 -39.6059 205.443C-43.7162 206.906 -53.2767 203.629 -58.8203 203.307C-66.2471 202.874 -72.854 200.457 -78.8138 198.088C-89.1084 193.995 -102.108 188.607 -114.597 191.31C-119.028 192.27 -122.211 194.107 -122.473 196.647C-122.609 197.957 -118.404 198.43 -118.268 197.114Z" fill="#59F4DB"/>
<path d="M-123.793 216.293C-123.489 213.272 -117.287 211.795 -111.218 211.909C-103.507 212.054 -96.0559 214.714 -89.8953 217.063C-78.8863 221.261 -65.0606 219.849 -53.3688 224.759C-36.1102 232.007 -31.0502 224.586 -30.6412 215.206C-30.3395 208.289 -25.6162 201.987 -23.7242 195.359C-21.9022 188.976 -16.9667 182.834 -4.35648 180.144C0.937364 179.016 7.34695 178.712 13.4701 179.995C20.01 181.366 24.9513 184.149 31.1951 185.815C42.8141 188.917 55.7493 187.913 65.2989 185.25C76.4067 182.154 82.4844 176.738 87.0675 171.103C91.8195 165.261 95.1793 158.965 102.936 153.959C109.554 149.687 119.417 146.161 132.119 146.618C144.564 147.066 155.878 151.142 166.071 154.799C176.562 158.562 187.386 162.58 199.856 164.208C226.577 167.698 249.04 159.528 262.326 150.862C277.492 140.972 287.492 128.036 312.397 122.62C323.102 120.293 336.354 119.31 348.984 121.7C361.75 124.115 370.473 129.471 378.354 134.634C386.427 139.922 394.447 145.14 405.947 148.947C417.233 152.683 430.146 155.048 443.013 155.693C449.228 156.004 455.244 155.884 461.125 155.388C463.811 155.161 461.859 153.166 459.191 153.391C446.293 154.479 432.012 153.329 419.092 150.375C406.111 147.407 396.136 142.836 387.538 137.349C379.667 132.325 372.402 126.793 361.65 122.932C350.775 119.026 337.785 117.651 325.744 118.488C313.535 119.338 302.631 122.028 294.078 125.769C284.141 130.116 277.078 135.719 270.008 141.177C257.229 151.043 241.034 162.571 212.516 162.909C185.513 163.228 167.74 150.304 143.348 145.854C131.357 143.667 119.552 144.319 110.294 147.343C100.709 150.473 94.6539 155.349 90.3346 160.475C85.0422 166.756 81.6885 173.741 73.0109 179.066C66.1515 183.275 54.2031 186.558 41.4315 185.482C34.1155 184.867 28.7967 182.703 22.8211 180.521C17.4339 178.553 11.6897 177.209 5.28688 177.073C-6.7054 176.819 -16.6885 180.592 -22.0195 184.977C-35.1692 195.794 -17.7351 217.167 -41.249 225.052C-45.5467 226.493 -55.5973 223.163 -61.4123 222.81C-69.2026 222.338 -76.1495 219.884 -82.4175 217.48C-93.2445 213.329 -106.918 207.868 -119.99 210.506C-124.629 211.442 -127.951 213.264 -128.205 215.803C-128.337 217.113 -123.925 217.609 -123.793 216.293Z" fill="#777777"/>
<rect width="11.7203" height="10.755" transform="matrix(0.904507 0.426458 -0.547356 0.8369 26.0648 95.4148)" fill="#FF2266"/>
<rect width="11.1013" height="11.3929" transform="matrix(0.70796 0.706252 -0.810522 0.585709 318.382 162.844)" fill="#222222"/>
<rect width="7.77089" height="7.97503" transform="matrix(0.707961 0.706251 -0.810522 0.585708 276.809 228.736)" fill="#59F4DB"/>
<rect width="5.55064" height="5.69645" transform="matrix(0.70796 0.706252 -0.810522 0.585709 184.652 212.263)" fill="#D61DA2"/>
<rect width="4.44051" height="4.55715" transform="matrix(0.70796 0.706252 -0.810521 0.585709 41.2205 58.8591)" fill="#21D61D"/>
<rect width="12.0204" height="10.4186" transform="matrix(0.976961 0.213419 -0.290008 0.957024 279.429 29.002)" fill="#ECB21E"/>
<rect width="11.4111" height="11.0825" transform="matrix(0.816261 0.577684 -0.700559 0.713594 144.724 30.8866)" fill="#CF1EEC"/>
<rect width="11.6366" height="10.8455" transform="matrix(0.882171 0.470929 -0.595111 0.803644 121.215 192.193)" fill="#4905DA"/>
<rect width="10.9714" height="11.5181" transform="matrix(0.654051 0.75645 -0.848646 0.528961 394.103 194.76)" fill="#DA0585"/>
<ellipse cx="209.715" cy="70.0097" rx="4.85037" ry="4.11822" fill="#C84242"/>
<ellipse cx="64.8102" cy="22.3099" rx="5.45667" ry="4.63299" fill="#C84242"/>
<ellipse cx="165.083" cy="165.939" rx="3.03149" ry="2.57388" fill="#FF2266"/>
<ellipse cx="370.384" cy="145.856" rx="3.03149" ry="2.57388" fill="#FF2266"/>
<ellipse cx="342.494" cy="208.659" rx="3.03148" ry="2.57388" fill="#B4A7E9"/>
<ellipse cx="102.401" cy="73.7876" rx="3.03149" ry="2.57389" fill="#F087D9"/>
<ellipse cx="352.195" cy="33.635" rx="3.03148" ry="2.57388" fill="#F087D9"/>
<ellipse cx="230.936" cy="20.0763" rx="3.03148" ry="2.57388" fill="#F087D9"/>
<ellipse cx="239.424" cy="197.334" rx="5.45668" ry="4.63299" fill="#F40000"/>
<ellipse cx="404.943" cy="41.3566" rx="7.27557" ry="6.17732" fill="#30DADA"/>
<ellipse cx="62.9913" cy="232.854" rx="7.27556" ry="6.17732" fill="#B7A0A0"/>
<circle cx="18" cy="205" r="3" fill="#19E1E1"/>
<rect width="7.77089" height="7.97503" transform="matrix(0.707961 0.706251 -0.810522 0.585708 16.4639 26)" fill="#B4A7E9"/>
<circle cx="322" cy="14" r="4" fill="#C84242"/>
<circle cx="417" cy="177" r="2" fill="#FF2266"/>
<circle cx="419.302" cy="227.143" r="5.5" fill="#B7A0A0"/>
</svg>
