<svg width="22" height="14" viewBox="0 0 22 14" fill="none" xmlns="http://www.w3.org/2000/svg">
<path d="M11 0C6.52722 0 2.55841 2.61744 0.0948122 6.65377C-0.0316041 6.85763 -0.0316041 7.13331 0.0948122 7.33738C2.55863 11.3735 6.52722 14 11 14C15.4728 14 19.4416 11.3734 21.9052 7.33738C22.0316 7.13331 22.0316 6.85763 21.9052 6.65377C19.4414 2.61744 15.4728 0 11 0V0ZM11 1.16658C15.0072 1.16658 18.5586 3.45137 20.8584 7.00003C18.5585 10.5464 15.0054 12.8335 11 12.8335C6.99459 12.8335 3.44136 10.5464 1.14159 7.00003C3.4415 3.45137 6.9928 1.16658 11 1.16658ZM11 2.91672C9.07305 2.91672 7.50043 4.75165 7.50043 7.00003C7.50043 9.2484 9.07305 11.0833 11 11.0833C12.927 11.0833 14.4996 9.2484 14.4996 7.00003C14.4996 4.75165 12.927 2.91672 11 2.91672V2.91672ZM11 4.08331C12.3866 4.08331 13.4998 5.38218 13.4998 7.00003C13.4998 8.61771 12.3866 9.91675 11 9.91675C9.61344 9.91675 8.50024 8.61771 8.50024 7.00003C8.50024 5.38218 9.61344 4.08331 11 4.08331Z" fill="#222222"/>
</svg>
