<svg width="22" height="22" viewBox="0 0 22 22" fill="none" xmlns="http://www.w3.org/2000/svg">
<path d="M11.0001 22C4.9345 22 0 17.3303 0 11.5898C0 8.36964 1.53745 5.3819 4.21821 3.39276C4.54762 3.14808 5.02476 3.20281 5.28314 3.51502C5.5417 3.82688 5.48388 4.27837 5.15412 4.52308C2.84256 6.2384 1.5173 8.81394 1.5173 11.5896C1.5173 16.5383 5.77101 20.5641 10.9998 20.5641C16.2286 20.5641 20.4824 16.5383 20.4824 11.5896C20.4824 8.82123 19.1628 6.24988 16.8616 4.53486C16.5325 4.28967 16.4758 3.83799 16.7352 3.52645C16.9947 3.21527 17.4711 3.16156 17.8005 3.40676C20.4695 5.39572 22 8.37809 22 11.5894C22 17.3299 17.0655 21.9996 10.9999 21.9996L11.0001 22ZM11.7588 10.0992V0.723984C11.7588 0.323968 11.419 0 11.0001 0C10.5811 0 10.2413 0.323968 10.2413 0.723984V10.0992C10.2413 10.499 10.5811 10.8232 11.0001 10.8232C11.419 10.8233 11.7588 10.499 11.7588 10.099V10.0992Z" fill="#F00D0D"/>
</svg>
