<svg width="299" height="316" viewBox="0 0 299 316" fill="none" xmlns="http://www.w3.org/2000/svg">
<line x1="70" y1="181.006" x2="70" y2="135" stroke="#F4F4F4" stroke-width="2"/>
<g clip-path="url(#clip0_36_366)">
<path d="M129.38 101.386C129.156 99.1932 128.427 97.0784 127.248 95.2011C126.069 93.3238 124.47 91.7329 122.573 90.5479C120.675 89.3629 118.528 88.6147 116.292 88.3598C114.057 88.1048 111.792 88.3496 109.667 89.0758L110.746 89.1836C105.907 90.1315 101.606 92.8218 98.694 96.7233C97.2714 98.6736 96.2936 100.901 95.8268 103.253C95.3601 105.606 95.4152 108.03 95.9886 110.36C97.2115 114.987 100.821 119.002 105.442 120.542C108.011 121.398 110.769 121.503 113.482 121.593C115.243 121.652 117.036 121.704 118.734 121.242C120.918 120.58 122.837 119.269 124.227 117.492C125.604 115.721 126.7 113.757 127.477 111.665C128.793 108.394 129.738 104.885 129.38 101.386Z" fill="#2F2E41"/>
<path d="M167.745 314.585C163.909 300.455 172.428 286.683 182.383 277.149C187.689 272.068 193.597 267.651 199.359 263.088C204.887 258.758 210.152 254.115 215.127 249.182C224.732 239.555 233.11 228.552 238.659 216.184C243.935 204.423 246.43 191.612 245.194 178.779C244.022 166.608 239.568 154.636 231.373 145.299C230.352 144.135 229.278 143.02 228.151 141.953C227.546 141.378 226.62 142.283 227.225 142.859C236.376 151.56 241.702 163.352 243.505 175.62C245.364 188.271 243.448 201.169 238.618 212.996C233.471 225.596 225.288 236.839 215.798 246.651C211.019 251.56 205.935 256.176 200.575 260.473C194.85 265.09 188.902 269.453 183.452 274.388C173.406 283.483 164.377 295.993 165.617 310.075C165.762 311.714 166.052 313.336 166.484 314.925C166.534 315.084 166.646 315.217 166.795 315.297C166.944 315.376 167.119 315.396 167.283 315.352C167.446 315.308 167.586 315.203 167.672 315.06C167.759 314.917 167.785 314.746 167.745 314.585V314.585Z" fill="white"/>
<path d="M207.92 234.145C201.875 223.995 197.251 213.095 194.174 201.738C191.087 190.383 189.543 178.68 189.582 166.93C189.626 155.181 191.083 143.137 194.802 131.933C198.332 121.299 204.657 111.158 214.699 105.355C219.82 102.414 225.666 100.902 231.602 100.984C237.872 101.042 244.055 102.658 249.705 105.275C255.238 107.838 260.297 111.292 264.971 115.143C269.427 118.808 273.586 122.807 277.408 127.103C284.983 135.633 291.171 145.51 294.628 156.339C298.23 167.625 298.861 179.969 295.518 191.392C292.307 202.363 285.273 211.713 276.638 219.225C267.305 227.342 256.25 233.242 245.103 238.596C242.313 239.936 239.508 241.245 236.703 242.554C235.943 242.909 236.606 244.014 237.363 243.661C249.117 238.175 260.988 232.641 271.466 224.981C280.712 218.223 288.953 209.739 293.855 199.405C299.04 188.476 300.102 176.05 297.953 164.259C295.853 152.736 290.585 141.951 283.533 132.558C280.03 127.911 276.135 123.559 271.892 119.546C267.538 115.336 262.784 111.542 257.694 108.215C247.262 101.537 234.215 97.5043 221.852 100.944C210.86 104.002 202.401 112.627 197.367 122.401C194.55 127.871 192.651 133.754 191.3 139.724C189.982 145.607 189.096 151.575 188.648 157.583C186.851 181.553 191.649 205.557 202.541 227.095C203.868 229.707 205.284 232.273 206.79 234.792C206.881 234.932 207.024 235.033 207.189 235.072C207.354 235.112 207.528 235.087 207.674 235.003C207.821 234.919 207.929 234.783 207.974 234.622C208.02 234.462 208.001 234.291 207.92 234.145V234.145Z" fill="white"/>
<path d="M199.633 221.758C193.588 211.608 188.964 200.708 185.887 189.351C182.8 177.996 181.256 166.293 181.295 154.543C181.339 142.794 182.796 130.75 186.515 119.546C190.045 108.912 196.37 98.7712 206.411 92.9684C211.532 90.0268 217.378 88.5149 223.315 88.597C229.585 88.6552 235.768 90.2714 241.418 92.8884C246.951 95.4514 252.01 98.9056 256.684 102.756C261.14 106.421 265.298 110.42 269.121 114.716C276.696 123.246 282.884 133.123 286.341 143.952C289.943 155.238 290.574 167.582 287.231 179.005C284.02 189.976 276.986 199.327 268.35 206.838C259.018 214.955 247.963 220.855 236.816 226.209C234.026 227.549 231.221 228.858 228.415 230.167C227.656 230.522 228.319 231.627 229.076 231.274C240.83 225.788 252.701 220.254 263.179 212.594C272.424 205.836 280.665 197.352 285.568 187.018C290.753 176.089 291.815 163.663 289.666 151.872C287.566 140.349 282.298 129.564 275.246 120.171C271.742 115.524 267.848 111.172 263.605 107.16C259.25 102.949 254.496 99.1547 249.407 95.8279C238.975 89.1501 225.928 85.1175 213.564 88.5572C202.573 91.6152 194.113 100.24 189.08 110.014C186.262 115.484 184.364 121.367 183.013 127.337C181.695 133.221 180.809 139.189 180.361 145.196C178.564 169.166 183.362 193.17 194.254 214.708C195.581 217.32 196.997 219.886 198.503 222.405C198.594 222.545 198.737 222.646 198.902 222.685C199.067 222.725 199.241 222.7 199.387 222.616C199.534 222.532 199.641 222.396 199.687 222.236C199.733 222.076 199.714 221.904 199.633 221.758V221.758Z" fill="white"/>
<path d="M80.5143 197.744C80.0528 197.107 79.7396 196.378 79.5968 195.609C79.454 194.84 79.4851 194.05 79.6878 193.294C79.8906 192.539 80.2601 191.836 80.7703 191.235C81.2805 190.634 81.919 190.15 82.6409 189.817L97.7656 143.441L108.299 148.799L90.1198 192.701C90.6107 193.925 90.6258 195.284 90.1622 196.519C89.6987 197.753 88.7887 198.779 87.6047 199.4C86.4206 200.022 85.0449 200.197 83.7381 199.892C82.4313 199.586 81.2843 198.822 80.5143 197.744H80.5143Z" fill="#FFB6B6"/>
<path d="M92.8708 149.854C92.726 149.54 92.652 149.199 92.654 148.855C92.656 148.51 92.7339 148.17 92.8822 147.858L98.0626 136.951C98.5737 135.262 99.7479 133.84 101.328 132.997C102.908 132.154 104.765 131.959 106.491 132.455C108.218 132.95 109.673 134.096 110.539 135.641C111.404 137.186 111.609 139.003 111.108 140.696L109.376 152.644C109.327 152.985 109.203 153.311 109.013 153.601C108.823 153.891 108.571 154.137 108.275 154.324C107.98 154.51 107.646 154.631 107.298 154.68C106.95 154.728 106.595 154.703 106.258 154.605L94.4064 151.166C94.0691 151.069 93.7572 150.901 93.4922 150.674C93.2272 150.448 93.0152 150.168 92.8708 149.854V149.854Z" fill="#2F2E41"/>
<path d="M136.565 151.694C132.966 160.925 133.885 170.606 138.319 180.638H106.915C108.177 173.5 107.665 166.867 102.989 161.417L136.565 151.694Z" fill="#FFB6B6"/>
<path d="M99.8112 134.732L109.105 128.113L124.314 123.976L136.988 126.458L137.733 133.316C138.639 141.659 138.245 150.087 136.565 158.314V158.314L103.613 165.761L100.234 159.969C100.234 159.969 92.6293 152.522 98.5438 144.248L99.8112 134.732Z" fill="#2F2E41"/>
<path d="M180.535 88.4322C180.743 89.1868 180.779 89.9767 180.641 90.7463C180.503 91.516 180.194 92.2466 179.737 92.8868C179.279 93.527 178.684 94.0612 177.992 94.4516C177.301 94.8421 176.531 95.0795 175.736 95.1469L145.141 133.519L137.156 124.919L169.74 89.9044C169.713 88.5891 170.18 87.3096 171.051 86.3086C171.923 85.3075 173.14 84.6543 174.47 84.4728C175.801 84.2914 177.153 84.5942 178.271 85.3239C179.389 86.0537 180.195 87.1596 180.535 88.4322V88.4322Z" fill="#FFB6B6"/>
<path d="M152.001 129.164C152.026 129.508 151.975 129.853 151.851 130.175C151.728 130.497 151.534 130.79 151.285 131.032L142.566 139.506C141.489 140.918 139.885 141.854 138.104 142.108C136.324 142.363 134.513 141.916 133.068 140.865C131.624 139.815 130.664 138.246 130.399 136.503C130.134 134.76 130.585 132.985 131.654 131.568L137.505 120.947C137.672 120.644 137.904 120.38 138.185 120.172C138.466 119.965 138.789 119.819 139.132 119.745C139.475 119.671 139.831 119.67 140.175 119.742C140.519 119.815 140.843 119.959 141.124 120.165L151.025 127.412C151.307 127.618 151.54 127.881 151.709 128.184C151.877 128.486 151.977 128.821 152.001 129.164V129.164Z" fill="#2F2E41"/>
<path d="M99.8524 306.185H104.665L106.954 288.008H99.8516L99.8524 306.185Z" fill="#FFB6B6"/>
<path d="M98.2227 303.861L105.83 303.416V306.608L113.063 311.5C113.42 311.741 113.689 312.088 113.831 312.49C113.972 312.892 113.979 313.328 113.85 313.734C113.72 314.139 113.462 314.494 113.112 314.746C112.763 314.998 112.34 315.134 111.906 315.134H102.849L101.288 311.977L100.678 315.134H97.2635L98.2227 303.861Z" fill="#2F2E41"/>
<path d="M133.874 306.185H138.686L140.975 288.008H133.873L133.874 306.185Z" fill="#FFB6B6"/>
<path d="M132.244 303.861L139.851 303.416V306.608L147.084 311.5C147.441 311.741 147.71 312.088 147.852 312.49C147.993 312.892 148 313.328 147.871 313.734C147.741 314.139 147.483 314.494 147.133 314.746C146.784 314.998 146.361 315.134 145.927 315.134H136.87L135.309 311.977L134.699 315.134H131.285L132.244 303.861Z" fill="#2F2E41"/>
<path d="M146.658 204.34V213.609L145.734 224.932C145.734 224.932 145.441 234.82 145.088 242.62C144.874 247.361 144.634 251.329 144.425 251.841C144.168 252.469 144.229 254.182 144.377 255.98C144.552 258.06 144.84 260.256 144.887 260.991C144.979 262.362 144.237 268.252 144.237 268.252C144.237 268.252 143.409 283.022 142.205 284.201C141.001 285.38 142.205 288.733 142.205 288.733C136.561 292.808 129.434 287.827 129.434 287.827C131.009 285.371 128.509 268.606 128.509 268.606C128.509 268.606 128.143 262.883 127.402 261.345C126.66 259.807 126.472 250.201 126.472 250.201V235.973C126.472 235.973 124.527 233.06 124.252 231.702C123.978 230.344 124.252 225.543 124.252 225.543L122.22 218.837L120.828 224.09C120.828 224.09 117.226 238.771 116.576 240.582C115.926 242.393 116.942 244.209 116.942 244.209C116.942 244.209 117.871 247.002 116.942 248.283C116.365 249.086 115.923 249.974 115.634 250.915C115.634 250.915 115.158 256.262 114.325 258.176C113.492 260.089 112.755 262.447 112.755 262.447C112.755 262.447 112.951 266.061 112.118 266.877C111.285 267.692 111.01 271.771 111.01 271.771C111.01 271.771 111.193 276.389 110.081 278.02C108.969 279.652 108.969 288.895 108.969 288.895C107.04 290.107 104.817 290.796 102.527 290.892C100.238 290.987 97.9632 290.485 95.9363 289.438C95.9363 289.438 97.0354 288.43 96.2023 283.731C95.3693 279.033 96.7999 266.24 96.7999 266.24C96.7999 266.24 96.6167 262.994 97.5412 261.542C98.466 260.089 97.0746 257.283 97.4454 256.015C97.8162 254.746 98.9283 247.856 98.9283 247.856C98.9283 247.856 98.466 230.912 98.466 230.006C98.3566 228.394 97.9112 226.822 97.1575 225.385C96.3245 223.937 97.1575 213.425 97.1575 213.425C97.1575 213.425 99.1202 207.992 98.466 206.813C97.8117 205.634 98.9021 203.55 98.9021 203.55C98.9021 203.55 97.8858 201.102 98.9021 200.649C99.9184 200.197 100.106 198.386 100.106 198.386L100.813 189.595C100.813 189.595 101.079 185.606 101.925 185.426C102.771 185.247 102.4 183.709 103.233 182.62C103.639 181.884 103.919 181.087 104.062 180.262C104.18 179.758 104.289 179.233 104.38 178.729C104.642 177.362 104.804 176.183 104.804 176.183C110.264 180.625 138.977 177.512 139.008 177.512C140.831 177.9 142.999 184.098 144.565 189.501C145.957 194.329 146.661 199.323 146.658 204.34Z" fill="#2F2E41"/>
<path d="M125.773 112.312C127.866 105.57 123.982 98.4433 117.097 96.3938C110.212 94.3442 102.935 98.1483 100.842 104.89C98.7489 111.632 102.633 118.759 109.518 120.809C116.403 122.859 123.681 119.054 125.773 112.312Z" fill="#FFB6B6"/>
<path d="M98.5809 110.825L103.626 109.797L104.555 103.24L106.297 109.253L108.708 108.761L109.25 104.937L110.266 108.444L128.184 104.793C127.815 103.056 127.1 101.408 126.081 99.942C125.061 98.4759 123.757 97.2208 122.242 96.2484C120.727 95.276 119.032 94.6053 117.252 94.2746C115.473 93.9439 113.644 93.9596 111.871 94.321L109.274 94.8501C105.693 95.5799 102.555 97.6729 100.549 100.669C98.5437 103.665 97.8357 107.318 98.5809 110.825V110.825Z" fill="#2F2E41"/>
<path d="M150.195 14.8852L150.162 14.9475C143.582 11.9789 136.088 11.6028 129.233 13.8972C122.377 16.1915 116.686 20.9805 113.338 27.2719C109.989 33.5633 109.241 40.875 111.247 47.6922C113.253 54.5094 117.86 60.3096 124.114 63.8912L124.081 63.9535L174.187 89.5271L200.301 40.4588C202.02 37.2366 203.074 33.7142 203.402 30.0929C203.73 26.4717 203.326 22.8227 202.213 19.3544C201.1 15.8861 199.3 12.6667 196.916 9.88006C194.532 7.09343 191.61 4.79429 188.318 3.11406C185.026 1.43383 181.428 0.405452 177.73 0.0877233C174.032 -0.230005 170.306 0.16914 166.765 1.26235C163.225 2.35555 159.939 4.12138 157.096 6.45888C154.253 8.79639 151.908 11.6597 150.195 14.8852V14.8852Z" fill="#59F4DB"/>
<path d="M194.836 296.454L194.828 296.47C193.165 295.719 191.271 295.624 189.538 296.204C187.805 296.784 186.367 297.995 185.521 299.585C184.674 301.175 184.485 303.023 184.992 304.746C185.499 306.469 186.664 307.935 188.244 308.84L188.236 308.856L200.9 315.32L207.501 302.918C207.935 302.103 208.202 301.213 208.285 300.298C208.368 299.382 208.265 298.46 207.984 297.583C207.703 296.707 207.248 295.893 206.645 295.189C206.043 294.484 205.304 293.903 204.472 293.478C203.64 293.054 202.731 292.794 201.796 292.713C200.861 292.633 199.919 292.734 199.024 293.01C198.13 293.287 197.299 293.733 196.58 294.324C195.862 294.915 195.269 295.639 194.836 296.454V296.454Z" fill="#FF6584"/>
<path d="M26.8389 139.203V139.273C19.6028 139.618 12.7798 142.677 7.78337 147.814C2.78695 152.952 5.76711e-05 159.774 6.10352e-05 166.869C6.43992e-05 173.964 2.78697 180.786 7.78339 185.924C12.7798 191.061 19.6028 194.119 26.8389 194.465V194.535L83.3419 194.535L83.3418 139.203C83.3454 135.567 82.6173 131.967 81.1991 128.607C79.781 125.247 77.7005 122.194 75.0768 119.622C72.453 117.05 69.3374 115.01 65.908 113.618C62.4786 112.226 58.8027 111.51 55.0903 111.51C51.378 111.51 47.7021 112.226 44.2727 113.618C40.8433 115.01 37.7277 117.05 35.1039 119.622C32.4802 122.194 30.3997 125.247 28.9816 128.607C27.5634 131.967 26.8353 135.567 26.8389 139.203V139.203Z" fill="#59F4DB"/>
<path d="M245.213 191.476C250.984 191.441 256.564 189.446 261.002 185.832C265.519 182.112 268.492 176.903 269.361 171.186C269.871 167.954 269.707 164.654 268.878 161.486C268.827 161.328 268.715 161.195 268.566 161.115C268.417 161.036 268.243 161.016 268.079 161.06C267.915 161.104 267.776 161.209 267.689 161.352C267.603 161.495 267.577 161.665 267.616 161.827C269.015 167.206 268.384 172.899 265.839 177.859C263.884 181.567 260.927 184.679 257.29 186.854C253.652 189.03 249.475 190.185 245.213 190.195C245.044 190.2 244.883 190.27 244.765 190.39C244.647 190.51 244.581 190.669 244.581 190.835C244.581 191.002 244.647 191.161 244.765 191.281C244.883 191.4 245.044 191.47 245.213 191.476V191.476Z" fill="white"/>
<path d="M144.176 25.0395C140.453 21.5785 134.574 21.5876 130.274 23.9969C125.449 26.7006 123.262 32.2875 123.373 37.5332C123.497 43.437 126.445 48.7827 130.251 53.2103C134.307 57.8106 139.028 61.8065 144.263 65.0714C149.484 68.4011 155.133 71.0374 161.062 72.9112C161.792 73.1416 162.525 73.36 163.263 73.5663C163.428 73.6049 163.602 73.5792 163.748 73.4946C163.894 73.41 164.001 73.2732 164.046 73.113C164.091 72.9528 164.071 72.7816 163.99 72.6357C163.908 72.4898 163.773 72.3804 163.611 72.3307C152.224 69.1443 141.872 63.1294 133.559 54.8697C129.602 50.9005 126.085 46.1301 125.003 40.5778C124.048 35.6745 125.104 29.9812 128.985 26.4885C132.757 23.0933 139.36 22.3288 143.25 25.9456C143.861 26.5132 144.788 25.6086 144.176 25.0395V25.0395Z" fill="white"/>
<path d="M25.8715 152.682C20.8426 152.069 16.1198 155.533 14.1611 159.908C11.9646 164.815 13.4455 170.47 16.6316 174.617C20.1405 179.183 25.4554 181.846 31.0111 183.259C36.9749 184.776 43.3057 185.185 49.4446 184.905C56.7017 184.576 63.8633 183.15 70.6758 180.679C71.4583 180.394 71.1198 179.155 70.3279 179.443C58.9873 183.567 46.3624 184.867 34.4368 182.69C29.1062 181.717 23.6771 179.861 19.7048 176.105C16.1054 172.702 13.5591 167.548 14.6423 162.57C15.7187 157.625 20.5204 153.311 25.8715 153.963C26.7051 154.065 26.6976 152.782 25.8715 152.682V152.682Z" fill="white"/>
<path d="M109.537 89.9144C110.753 85.1529 108.397 80.0455 104.749 76.6795C101.102 73.3134 96.3416 71.3788 91.6304 69.7038C87.8733 68.368 83.4727 67.2062 80.0724 69.2635C77.3401 70.9166 76.1549 74.1277 74.593 76.8759C71.6165 82.1128 66.8145 86.1254 61.0652 88.18C55.3158 90.2345 49.0033 90.1937 43.2822 88.0648C45.2988 93.7976 52.2447 96.6017 58.4236 96.2123C64.6024 95.8228 70.3093 93.0363 76.0651 90.8018C81.8209 88.5673 88.2236 86.8409 94.1394 88.6304C96.6362 89.3857 98.9071 90.7336 101.379 91.5631C103.851 92.3926 106.744 92.6396 108.948 91.2634" fill="#2F2E41"/>
</g>
<defs>
<clipPath id="clip0_36_366">
<rect width="299" height="316" fill="white"/>
</clipPath>
</defs>
</svg>
